<svg width="18" height="18" viewBox="0 0 18 18" fill="none" xmlns="http://www.w3.org/2000/svg">
<rect width="18" height="18" fill="#C1B3B3"/>
<g id="Prototipo desktop">
<path d="M-1676 -1364C-1676 -1365.1 -1675.1 -1366 -1674 -1366H11335C11336.1 -1366 11337 -1365.1 11337 -1364V8663C11337 8664.1 11336.1 8665 11335 8665H-1674C-1675.1 8665 -1676 8664.1 -1676 8663V-1364Z" fill="#474545"/>
<path d="M-1674 -1365H11335V-1367H-1674V-1365ZM11336 -1364V8663H11338V-1364H11336ZM11335 8664H-1674V8666H11335V8664ZM-1675 8663V-1364H-1677V8663H-1675ZM-1674 8664C-1674.55 8664 -1675 8663.55 -1675 8663H-1677C-1677 8664.66 -1675.66 8666 -1674 8666V8664ZM11336 8663C11336 8663.55 11335.6 8664 11335 8664V8666C11336.7 8666 11338 8664.66 11338 8663H11336ZM11335 -1365C11335.6 -1365 11336 -1364.55 11336 -1364H11338C11338 -1365.66 11336.7 -1367 11335 -1367V-1365ZM-1674 -1367C-1675.66 -1367 -1677 -1365.66 -1677 -1364H-1675C-1675 -1364.55 -1674.55 -1365 -1674 -1365V-1367Z" fill="black" fill-opacity="0.1"/>
<g id="Tela de login">
<rect width="1280" height="832" transform="translate(-808 -296)" fill="white"/>
<g id="Button Google Sign in">
<g id="Official Buttons / Sign in with Google/White/With Text" filter="url(#filter0_dd_171_2351)">
<rect x="-8" y="-11" width="175" height="40" rx="2" fill="white"/>
<g id="logo googleg 48dp">
<path id="Shape" fill-rule="evenodd" clip-rule="evenodd" d="M17.64 9.20468C17.64 8.5665 17.5827 7.95286 17.4764 7.36377H9V10.8451H13.8436C13.635 11.9701 13.0009 12.9233 12.0477 13.5615V15.8197H14.9564C16.6582 14.2529 17.64 11.9456 17.64 9.20468Z" fill="#4285F4"/>
<path id="Shape_2" fill-rule="evenodd" clip-rule="evenodd" d="M8.99976 18C11.4298 18 13.467 17.1941 14.9561 15.8195L12.0475 13.5613C11.2416 14.1013 10.2107 14.4204 8.99976 14.4204C6.65567 14.4204 4.67158 12.8372 3.96385 10.71H0.957031V13.0418C2.43794 15.9831 5.48158 18 8.99976 18Z" fill="#34A853"/>
<path id="Shape_3" fill-rule="evenodd" clip-rule="evenodd" d="M3.96409 10.7098C3.78409 10.1698 3.68182 9.59301 3.68182 8.99983C3.68182 8.40664 3.78409 7.82983 3.96409 7.28983V4.95801H0.957273C0.347727 6.17301 0 7.54755 0 8.99983C0 10.4521 0.347727 11.8266 0.957273 13.0416L3.96409 10.7098Z" fill="#FBBC05"/>
<path id="Shape_4" fill-rule="evenodd" clip-rule="evenodd" d="M8.99976 3.57955C10.3211 3.57955 11.5075 4.03364 12.4402 4.92545L15.0216 2.34409C13.4629 0.891818 11.4257 0 8.99976 0C5.48158 0 2.43794 2.01682 0.957031 4.95818L3.96385 7.29C4.67158 5.16273 6.65567 3.57955 8.99976 3.57955Z" fill="#EA4335"/>
</g>
</g>
</g>
</g>
</g>
<defs>
<filter id="filter0_dd_171_2351" x="-9" y="-12" width="177" height="43" filterUnits="userSpaceOnUse" color-interpolation-filters="sRGB">
<feFlood flood-opacity="0" result="BackgroundImageFix"/>
<feColorMatrix in="SourceAlpha" type="matrix" values="0 0 0 0 0 0 0 0 0 0 0 0 0 0 0 0 0 0 127 0" result="hardAlpha"/>
<feOffset dy="1"/>
<feGaussianBlur stdDeviation="0.5"/>
<feColorMatrix type="matrix" values="0 0 0 0 0 0 0 0 0 0 0 0 0 0 0 0 0 0 0.168 0"/>
<feBlend mode="normal" in2="BackgroundImageFix" result="effect1_dropShadow_171_2351"/>
<feColorMatrix in="SourceAlpha" type="matrix" values="0 0 0 0 0 0 0 0 0 0 0 0 0 0 0 0 0 0 127 0" result="hardAlpha"/>
<feOffset/>
<feGaussianBlur stdDeviation="0.5"/>
<feColorMatrix type="matrix" values="0 0 0 0 0 0 0 0 0 0 0 0 0 0 0 0 0 0 0.084 0"/>
<feBlend mode="normal" in2="effect1_dropShadow_171_2351" result="effect2_dropShadow_171_2351"/>
<feBlend mode="normal" in="SourceGraphic" in2="effect2_dropShadow_171_2351" result="shape"/>
</filter>
</defs>
</svg>
